<?xml version="1.0" encoding="UTF-8" standalone="no"?>
<!-- Created with Inkscape (http://www.inkscape.org/) -->

<svg
   xmlns:dc="http://purl.org/dc/elements/1.1/"
   xmlns:cc="http://creativecommons.org/ns#"
   xmlns:rdf="http://www.w3.org/1999/02/22-rdf-syntax-ns#"
   xmlns:svg="http://www.w3.org/2000/svg"
   xmlns="http://www.w3.org/2000/svg"
   xmlns:sodipodi="http://sodipodi.sourceforge.net/DTD/sodipodi-0.dtd"
   xmlns:inkscape="http://www.inkscape.org/namespaces/inkscape"
   width="72"
   height="72"
   viewBox="0 0 72.000001 72.000001"
   id="svg3389"
   version="1.1"
   inkscape:version="0.91 r13725"
   sodipodi:docname="DroneSettings.svg">
  <defs
     id="defs3391" />
  <sodipodi:namedview
     id="base"
     pagecolor="#ffffff"
     bordercolor="#666666"
     borderopacity="1.0"
     inkscape:pageopacity="0.0"
     inkscape:pageshadow="2"
     inkscape:zoom="5.6568543"
     inkscape:cx="13.566055"
     inkscape:cy="33.105461"
     inkscape:document-units="px"
     inkscape:current-layer="layer1"
     showgrid="true"
     units="px"
     showguides="false"
     inkscape:object-paths="false"
     inkscape:window-width="1920"
     inkscape:window-height="1004"
     inkscape:window-x="0"
     inkscape:window-y="24"
     inkscape:window-maximized="1">
    <inkscape:grid
       type="xygrid"
       id="grid3401" />
  </sodipodi:namedview>
  <metadata
     id="metadata3394">
    <rdf:RDF>
      <cc:Work
         rdf:about="">
        <dc:format>image/svg+xml</dc:format>
        <dc:type
           rdf:resource="http://purl.org/dc/dcmitype/StillImage" />
        <dc:title></dc:title>
      </cc:Work>
    </rdf:RDF>
  </metadata>
  <g
     inkscape:label="Layer 1"
     inkscape:groupmode="layer"
     id="layer1"
     transform="translate(0,-980.36216)">
    <g
       id="g4415">
      <g
         transform="translate(3.25,0.125)"
         id="g4398">
        <g
           id="g4390"
           transform="matrix(-1,0,0,1,64.856059,0)">
          <circle
             r="3"
             cy="994.18475"
             cx="12.981476"
             id="path4325"
             style="fill:#000000;fill-opacity:1;fill-rule:nonzero;stroke:none" />
          <circle
             style="fill:#000000;fill-opacity:1;fill-rule:nonzero;stroke:none"
             id="circle4347"
             cx="12.929691"
             cy="1038.6632"
             r="3" />
          <path
             inkscape:connector-curvature="0"
             id="path4423"
             d="m 12.61133,981.34685 c -1.81706,0.0449 -3.64196,0.47142 -5.36328,1.29301 -2.50261,1.1944 -4.89358,3.6196 -6.0625,6.1484 C 0.3249,990.65016 0,992.16346 0,994.30776 c 0,3.657 1.2106,6.58104 3.79102,9.15244 1.9533,1.9464 4.02813,3.0589 6.70312,3.5918 1.40151,0.2792 3.59469,0.275 4.92969,-0.01 2.16311,-0.4583 4.23782,-1.4331 5.73633,-2.6953 l 0.39062,-0.3281 0.47852,0.4687 c 2.143249,2.0993 5.819239,6.3636 6.876951,7.9785 l 0.464844,0.711 -0.126953,0.7949 c -0.181715,1.1371 -0.176485,3.4737 0.01172,4.7832 l 0.154297,1.0703 -0.332031,0.5195 c -0.511526,0.8006 -1.777158,2.4314 -2.873048,3.7031 -1.06796,1.2393 -3.358011,3.7352 -4.00586,4.3653 l -0.40039,0.3887 -0.55859,-0.4434 c -3.10527,-2.4634 -6.9923,-3.4099 -10.81055,-2.6309 -3.88515,0.7927 -7.28074,3.4216 -9.01953,6.9824 -1.74214,3.5677 -1.76906,7.6847 -0.0742,11.2696 0.70859,1.4988 1.58824,2.7098 2.80469,3.8613 2.07417,1.9634 4.3455,3.0212 7.52734,3.5078 0.658159,0.1007 3.203059,-0.03 4.03906,-0.207 5.08413,-1.0782 9.056029,-5.0884 10.06641,-10.1641 0.72811,-3.6577 -0.13892,-7.3973 -2.41602,-10.416 -0.55636,-0.7375 -0.61168,-0.8438 -0.52539,-1.0332 0.28377,-0.6228 1.60741,-1.7153 3.38868,-2.7949 1.068749,-0.6478 4.43589,-2.3651 4.908197,-2.5039 0.156905,-0.046 0.314397,0.064 0.839844,0.5918 0.972449,0.9766 2.026787,1.4593 3.085938,1.455 l 0,-19.9296 c -1.0412,-0.01 -2.054345,0.4397 -2.960938,1.3359 -0.351274,0.3473 -0.735147,0.7627 -0.853516,0.9219 l -0.216796,0.289 -1.767579,-0.8711 c -2.666781,-1.3156 -4.3956,-2.3902 -5.507811,-3.4199 -0.61669,-0.5709 -1.07617,-1.22 -1.07617,-1.5195 0,-0.1154 0.18173,-0.4304 0.41211,-0.7129 1.30806,-1.6041 2.27743,-3.76914 2.64062,-5.89844 0.19983,-1.1716 0.19983,-3.1605 0,-4.3321 -0.52202,-3.0605 -2.22375,-5.9782 -4.60742,-7.8965 -2.46902,-1.98696 -5.47744,-2.97326 -8.50586,-2.89841 z m 0.38086,3.74221 c 1.48766,0 2.13162,0.1094 3.40039,0.5859 2.69961,1.014 4.85693,3.4364 5.64063,6.334 0.20077,0.7424 0.22656,1.0095 0.22656,2.2988 0,1.2901 -0.0264,1.5566 -0.22852,2.3086 -0.45322,1.6869 -1.23739,3.0283 -2.5,4.27544 -1.2794,1.2638 -2.83566,2.1098 -4.56836,2.4825 -0.78582,0.1689 -2.4885,0.2348 -3.19922,0.123 -1.46051,-0.2298 -3.1284,-0.9244 -4.22851,-1.7598 -5.03456,-3.82294 -4.98098,-11.14854 0.10937,-14.94724 0.72316,-0.5397 2.14294,-1.2035 3.14063,-1.4668 0.76183,-0.2011 1.06158,-0.2325 2.20703,-0.2344 z m 13.30273,22.52934 c 0,-0.026 0.28818,0.114 0.64063,0.3105 0.35245,0.1966 1.309032,0.6799 2.124998,1.0743 0.825139,0.3987 1.463834,0.7583 1.439453,0.8105 -0.0241,0.052 -0.219842,0.5249 -0.435546,1.0508 l -0.392578,0.9551 -0.25,-0.336 c -0.582596,-0.785 -1.941147,-2.4716 -2.511717,-3.1191 -0.33844,-0.3841 -0.61524,-0.7204 -0.61524,-0.7461 z m 3.443363,13.5332 c 0.0357,-0.039 0.155785,0.1801 0.265625,0.4863 0.109839,0.3062 0.328486,0.8024 0.486328,1.1035 l 0.287109,0.5469 -2.277344,1.1328 c -1.252451,0.6226 -2.253421,1.0932 -2.224611,1.0469 0.0288,-0.046 0.44833,-0.5421 0.93164,-1.1035 0.48332,-0.5614 1.234935,-1.4987 1.671878,-2.082 0.436942,-0.5834 0.823675,-1.0921 0.859375,-1.1309 z m -16.937503,8.0293 c 0.41893,-0.016 0.8424,0 1.27149,0.041 2.18961,0.2227 4.09902,1.1308 5.64453,2.6836 0.84195,0.846 1.33384,1.5489 1.85547,2.6524 0.6631,1.4027 0.7906,2.0465 0.7832,3.9433 -0.006,1.5122 -0.0248,1.6941 -0.24414,2.4121 -1.08456,3.55 -3.83782,6.0292 -7.38477,6.6504 -2.98653,0.523 -6.0751,-0.5045 -8.20312,-2.7285 -0.37966,-0.3968 -0.84302,-0.9523 -1.0293,-1.2344 -0.51623,-0.7817 -1.09224,-2.0608 -1.30078,-2.8926 -0.26399,-1.0529 -0.32549,-2.7879 -0.13672,-3.873 0.50465,-2.9009 2.38159,-5.3877 5.04688,-6.6895 1.22211,-0.5969 2.44046,-0.9164 3.69726,-0.9648 z"
             style="fill:#000000;fill-opacity:1;fill-rule:nonzero;stroke:none" />
        </g>
        <path
           style="fill:#000000;fill-opacity:1"
           d="m 27.958196,988.3124 0,18.0092 c -4.993465,0.6437 -8.849214,4.8963 -8.849214,10.066 0,5.1698 3.855749,9.4251 8.849214,10.0687 l 0,18.6749 -1.629363,0 c -1.336912,0 -2.406965,-0.9347 -2.540656,-2.2717 l -0.402119,-3.8776 c -2.005368,-0.5347 -3.742832,-1.2021 -5.480819,-2.2716 l -3.075943,2.4047 c -1.069532,0.8022 -2.539613,0.6691 -3.475452,-0.1336 l -4.4102438,-4.4102 c -0.93584,-0.9358 -1.07162,-2.4085 -0.135781,-3.4781 l 2.407488,-3.0733 c -0.935839,-1.738 -1.736943,-3.4755 -2.271707,-5.4809 l -3.611232,-0.402 c -1.336913,-0.1338 -2.271708,-1.3375 -2.271708,-2.5407 l 0,-6.1493 c 0,-1.3369 0.934795,-2.407 2.271708,-2.5406 l 3.611232,-0.3996 c 0.534764,-1.8716 1.202698,-3.7433 2.138537,-5.3476 l -2.274318,-2.8096 c -0.802149,-1.0696 -0.666367,-2.5397 0.135781,-3.47554 l 4.4102438,-4.41021 c 0.935839,-0.93584 2.405922,-1.07161 3.475452,-0.13578 l 2.673825,2.14115 c 1.737986,-1.06953 3.61123,-1.87274 5.616599,-2.40748 l 0.399508,-3.47545 c 0.133692,-1.33692 1.337434,-2.27432 2.540656,-2.27432 l 1.898312,0 z"
           id="path4257"
           inkscape:connector-curvature="0" />
      </g>
      <path
         transform="translate(0,980.36216)"
         inkscape:connector-curvature="0"
         id="path4405"
         d="m 38.288248,31.337633 c -0.06084,-0.156805 -0.231505,-0.589204 -0.379247,-0.960887 -0.147742,-0.371682 -0.240195,-0.749866 -0.205451,-0.840407 0.07566,-0.19716 4.073583,-2.221205 4.073583,-2.062348 0,0.06074 -0.09186,0.186671 -0.204143,0.279854 -0.112278,0.09318 -0.872387,1.001804 -1.68913,2.019156 -1.357246,1.690616 -1.494503,1.825208 -1.595612,1.564632 z"
         style="fill:#000000;fill-opacity:1;fill-rule:nonzero;stroke:none" />
      <path
         transform="translate(0,980.36216)"
         inkscape:connector-curvature="0"
         id="path4409"
         d="m 39.327287,44.077178 -2.012345,-1.024645 0.518495,-1.11344 0.518496,-1.11344 0.49385,0.675482 c 0.271617,0.371515 1.014162,1.309231 1.6501,2.083812 0.635937,0.774581 1.15625,1.435725 1.15625,1.469208 0,0.164595 -0.474347,-0.03474 -2.324846,-0.976977 z"
         style="fill:#000000;fill-opacity:1;fill-rule:nonzero;stroke:none" />
      <path
         inkscape:connector-curvature="0"
         id="path4411"
         d="m 38,1012.3622 c 0.253228,-0.1829 0.26404,-0.5813 0.493125,-0.7913 0.105073,-0.096 0.570766,-0.3432 0.707107,-0.3977 0.09958,-0.04 0.209262,-0.05 0.309359,-0.088 0.09224,-0.035 0.173412,-0.096 0.265165,-0.1326 0.0564,-0.022 0.12245,-0.017 0.176777,-0.044 0.06588,-0.033 0.115491,-0.092 0.176777,-0.1326 0.02741,-0.018 0.0651,-0.021 0.08839,-0.044 0.02329,-0.023 0.02592,-0.061 0.04419,-0.088 0.01156,-0.017 0.03488,-0.026 0.0442,-0.044 0.0066,-0.013 -0.0082,-0.032 0,-0.044 0.02311,-0.035 0.05893,-0.059 0.08839,-0.088 0.01473,-0.015 0.03488,-0.026 0.04419,-0.044 0.0066,-0.013 -0.0066,-0.031 0,-0.044 0.0093,-0.019 0.03761,-0.024 0.04419,-0.044 0.0093,-0.028 -0.01318,-0.062 0,-0.088 0.02946,-0.029 0.05893,-0.059 0.08839,-0.088 0,-0.015 -0.0066,-0.031 0,-0.044 0.0093,-0.019 0.03914,-0.024 0.04419,-0.044 0.01072,-0.043 -0.01641,-0.092 0,-0.1326 0.07194,-0.072 0.101168,-0.082 0.132582,-0.1768 0.01921,-0.058 0.02164,-0.1204 0.04419,-0.1768 0.01548,-0.039 0.06976,-0.051 0.08839,-0.088 0.0066,-0.013 -0.0047,-0.03 0,-0.044 0.01042,-0.031 0.03378,-0.057 0.04419,-0.088 0.0047,-0.014 -0.0066,-0.031 0,-0.044 0.03542,-0.071 0.05296,-0.018 0.08839,-0.088 0.0066,-0.013 -0.0082,-0.032 0,-0.044 0.02311,-0.035 0.05893,-0.059 0.08839,-0.088 0.01473,-0.015 0.03488,-0.026 0.04419,-0.044 0.0066,-0.013 0,-0.03 0,-0.044 0.01473,-0.015 0.03488,-0.026 0.04419,-0.044 0.01318,-0.026 -0.01634,-0.064 0,-0.088 0.02311,-0.035 0.05893,-0.059 0.08839,-0.088 0.01473,-0.015 0.03488,-0.025 0.0442,-0.044 0.0066,-0.013 0,-0.029 0,-0.044 0,-0.029 -0.0093,-0.061 0,-0.088 0.0066,-0.02 0.03761,-0.024 0.04419,-0.044 0.103468,-0.3104 -0.094,0.075 0.04419,-0.1326 0.01473,-0.03 0.02946,-0.059 0.04419,-0.088 0,-0.015 -0.0066,-0.031 0,-0.044 0.0093,-0.019 0.03761,-0.024 0.04419,-0.044 0.0093,-0.028 0,-0.059 0,-0.088 0,-0.015 -0.0066,-0.031 0,-0.044 0.01863,-0.037 0.06976,-0.051 0.08839,-0.088 0.0067,-0.013 0,-0.1127 0,-0.1326 0,-0.046 -0.01042,-0.061 0.04419,-0.088 0.01318,-0.01 0.05892,0 0.04419,0 -0.02546,0 -0.204863,-0.01 -0.220971,0 -0.146574,0.1466 0.04167,-0.021 -0.08839,0.044 -0.01863,0.01 -0.02443,0.038 -0.04419,0.044 -0.04193,0.014 -0.09066,-0.014 -0.132583,0 -0.09281,0.031 -0.172357,0.1016 -0.265165,0.1325 -0.02795,0.01 -0.06204,-0.013 -0.08839,0 -0.03616,0.018 -0.09557,0.1049 -0.132583,0.1326 -0.04249,0.032 -0.09009,0.057 -0.132582,0.088 -0.01667,0.013 -0.02686,0.033 -0.0442,0.044 -0.05482,0.036 -0.124072,0.049 -0.176776,0.088 -0.05446,0.041 -0.120515,0.1393 -0.176777,0.1768 -0.101616,0.068 -0.119355,0.021 -0.220971,0.088 -0.01733,0.012 -0.02946,0.029 -0.04419,0.044 -0.04419,0.044 -0.08839,0.088 -0.132583,0.1325 -0.01473,0.015 -0.02443,0.038 -0.04419,0.044 -0.02795,0.01 -0.06204,-0.013 -0.08839,0 -0.287779,0.1439 0.0881,0.044 -0.176777,0.1326 -0.06629,0.022 -0.04419,-0.044 -0.132582,0 -0.03727,0.019 -0.05372,0.065 -0.08839,0.088 -0.02451,0.016 -0.06044,-0.01 -0.08839,0 -0.03125,0.01 -0.05714,0.034 -0.08839,0.044 -0.01398,0 -0.03102,-0.01 -0.04419,0 -0.03376,0.017 -0.102657,0.1226 -0.132583,0.1326 -0.02795,0.01 -0.05893,0 -0.08839,0 -0.02946,0.029 -0.05372,0.065 -0.08839,0.088 -0.02451,0.016 -0.0598,-0.01 -0.08839,0 -0.04519,0.011 -0.08739,0.033 -0.132583,0.044 -0.0394,0.01 -0.194994,-0.013 -0.22097,0 -0.03376,0.017 -0.102657,0.1226 -0.132583,0.1325 -0.02795,0.01 -0.05893,0 -0.08839,0 -0.01473,0 -0.03194,-0.01 -0.04419,0 -0.03467,0.023 -0.05893,0.059 -0.08839,0.088 -0.01473,0.015 -0.02556,0.035 -0.04419,0.044 -0.01318,0.01 -0.03102,-0.01 -0.04419,0 -0.01863,0.01 -0.02443,0.038 -0.04419,0.044 -0.02795,0.01 -0.05893,0 -0.08839,0 -0.01473,0 -0.03194,-0.01 -0.04419,0 -0.03467,0.023 -0.05893,0.059 -0.08839,0.088 -0.01473,0.015 -0.02556,0.035 -0.04419,0.044 -0.06096,0.03 -0.03953,-0.053 -0.08839,0.044 -0.02168,0.043 0.02024,0.064 0.04419,0.088 0.01473,0.015 0.02556,0.035 0.0442,0.044 0.01318,0.01 0.03102,-0.01 0.04419,0 0.04723,0.024 0.04116,0.065 0.08839,0.088 0.01318,0.01 0.03102,-0.01 0.04419,0 0.01863,0.01 0.02556,0.035 0.04419,0.044 0.02635,0.013 0.06714,-0.02 0.08839,0 0.06412,0.062 0.113221,0.137 0.169817,0.2055"
         style="fill:none;fill-rule:evenodd;stroke:#000000;stroke-width:1px;stroke-linecap:butt;stroke-linejoin:miter;stroke-opacity:1" />
      <path
         inkscape:connector-curvature="0"
         id="path4413"
         d="m 38,1021.3622 c 0.0023,0.065 -0.01382,0.1344 0.007,0.1966 0.01322,0.039 0.06527,0.054 0.08839,0.088 0.0082,0.012 -0.0082,0.032 0,0.044 0.03467,0.052 0.08839,0.088 0.132582,0.1326 0.08839,0.088 0.176777,0.1768 0.265165,0.2651 0.10312,0.1032 0.20624,0.2063 0.30936,0.3094 0.04419,0.044 0.08058,0.098 0.132582,0.1326 0.03876,0.026 0.09092,0.023 0.132583,0.044 0.01863,0.01 0.02946,0.029 0.04419,0.044 0.04419,0.044 0.08839,0.088 0.132582,0.1326 0.01473,0.015 0.02686,0.033 0.0442,0.044 0.02741,0.018 0.05714,0.034 0.08839,0.044 0.01398,0 0.03378,-0.01 0.04419,0 0.01042,0.01 -0.0066,0.031 0,0.044 0.04886,0.098 0.02743,0.014 0.08839,0.044 0.05067,0.025 0.06148,0.092 0.08839,0.1326 0.09541,0.1431 -0.0055,-0.018 0.08839,0.044 0.052,0.035 0.08839,0.088 0.132583,0.1326 0.0105,0.01 0.161918,0.1718 0.176776,0.1767 0.156816,0.052 0.02236,-0.072 0.176777,0.044 0.05,0.037 0.08839,0.088 0.132583,0.1326 0.04419,0.044 0.09508,0.083 0.132582,0.1326 0.03187,0.043 0.05521,0.091 0.08839,0.1326 0.05627,0.07 0.154176,0.1542 0.220971,0.221 0.117851,0.1178 0.235703,0.2357 0.353554,0.3535 0.01473,0.015 0.02556,0.035 0.04419,0.044 0.06096,0.031 0.03953,-0.053 0.08839,0.044 0.0066,0.013 -0.0066,0.031 0,0.044 0.02031,0.041 0.165599,0.1432 0.176777,0.1768 0.0067,0.02 -0.0098,0.1571 0,0.1767 0.01863,0.037 0.06975,0.051 0.08839,0.088 0.01436,0.029 -0.01402,0.193 0,0.221 0.0093,0.019 0.03488,0.026 0.04419,0.044 0.0066,0.013 -0.0066,0.031 0,0.044 0.0093,0.019 0.05893,0.029 0.04419,0.044 -0.01473,0.015 -0.06503,-0.044 -0.04419,-0.044 0.03294,0 0.05643,0.036 0.08839,0.044 0.02858,0.01 0.05892,0 0.08839,0 0.01473,0 0.03102,-0.01 0.04419,0 0.01863,0.01 0.02946,0.029 0.04419,0.044 0.02946,0.029 0.05893,0.059 0.08839,0.088 0.01473,0.015 0.04419,0.023 0.04419,0.044 0,0.015 -0.03102,0.01 -0.04419,0 -0.01863,-0.01 -0.02556,-0.035 -0.04419,-0.044 -0.01318,-0.01 -0.03022,0 -0.0442,0 -0.0625,-0.021 -0.114276,-0.068 -0.176776,-0.088 -0.01398,-0 -0.0299,0 -0.04419,0 -0.04519,-0.011 -0.0869,-0.035 -0.132583,-0.044 -0.284251,-0.057 0.193468,0.1188 -0.220971,-0.088 -0.01318,-0.01 -0.02946,0 -0.04419,0 -0.05893,0 -0.118443,0.01 -0.176777,0 -0.140446,-0.02 -0.227386,-0.1263 -0.353553,-0.1768 -0.08984,-0.036 -0.143239,-0.037 -0.220971,-0.088 -0.01733,-0.012 -0.02443,-0.038 -0.04419,-0.044 -0.02795,-0.01 -0.06204,0.013 -0.08839,0 -0.0559,-0.028 -0.08839,-0.088 -0.132583,-0.1326 -0.02946,-0.029 -0.05372,-0.065 -0.08839,-0.088 -0.01226,-0.01 -0.02946,0 -0.04419,0 -0.02946,-0.015 -0.0651,-0.021 -0.08839,-0.044 -0.01042,-0.011 0.0066,-0.031 0,-0.044 -0.0093,-0.019 -0.02946,-0.029 -0.04419,-0.044 -0.01473,-0.015 -0.02556,-0.035 -0.04419,-0.044 -0.04167,-0.021 -0.09532,-0.016 -0.132583,-0.044 -0.02635,-0.02 -0.0209,-0.065 -0.04419,-0.088 -0.02329,-0.023 -0.06098,-0.026 -0.08839,-0.044 -0.01734,-0.011 -0.02556,-0.035 -0.04419,-0.044 -0.01318,-0.01 -0.03102,0.01 -0.0442,0 -0.01863,-0.01 -0.02443,-0.038 -0.04419,-0.044 -0.02795,-0.01 -0.06204,0.013 -0.08839,0 -0.03727,-0.019 -0.05112,-0.07 -0.08839,-0.088 -0.05433,-0.027 -0.117218,-0.032 -0.176777,-0.044 -0.01444,-0 -0.03102,0.01 -0.04419,0 -0.04751,-0.024 -0.09009,-0.057 -0.132583,-0.088 -0.0809,-0.061 -0.0043,-0.046 -0.132582,-0.088 -0.03713,-0.012 -0.203259,0.012 -0.220971,0 -0.03467,-0.023 -0.05893,-0.059 -0.08839,-0.088 -0.01473,-0.015 -0.02556,-0.035 -0.04419,-0.044 -0.01318,-0.01 -0.03022,0 -0.04419,0 -0.03125,-0.01 -0.05714,-0.034 -0.08839,-0.044 -0.02795,-0.01 -0.06044,0.01 -0.08839,0 -0.09222,-0.031 -0.128749,-0.1018 -0.22097,-0.1326 -0.02795,-0.01 -0.06387,0.016 -0.08839,0 -0.03467,-0.023 -0.05893,-0.059 -0.08839,-0.088 -0.01473,-0.015 -0.02556,-0.035 -0.04419,-0.044 -0.01318,-0.01 -0.03102,0.01 -0.0442,0 -0.01863,-0.01 -0.02556,-0.035 -0.04419,-0.044 -0.01318,-0.01 -0.03102,0.01 -0.04419,0 -0.01863,-0.01 -0.02946,-0.03 -0.04419,-0.044 -0.04419,-0.044 -0.08839,-0.088 -0.132583,-0.1326 -0.02946,-0.029 -0.05372,-0.065 -0.08839,-0.088 0.005,-0.084 -0.10312,-0.029 -0.132582,-0.044 -0.01863,-0.01 -0.02946,-0.029 -0.04419,-0.044 -0.01473,-0.015 -0.03488,-0.026 -0.04419,-0.044 -0.0066,-0.013 0,-0.029 0,-0.044 0,-0.015 0,-0.029 0,-0.044 0,-0.044 0,-0.088 0,-0.1325 0,-0.088 0,-0.1768 0,-0.2652 0,-0.015 0,-0.029 0,-0.044 0,-0.015 -0.0082,-0.032 0,-0.044 0.02311,-0.035 0.05893,-0.059 0.08839,-0.088 0.07366,-0.074 0.147313,-0.1473 0.22097,-0.2209 0.146574,-0.1466 -0.02083,0.042 0.0442,-0.088 0.01863,-0.037 0.06975,-0.051 0.08839,-0.088 0.01318,-0.026 -0.01318,-0.062 0,-0.088 0.0093,-0.019 0.03488,-0.026 0.04419,-0.044 0.0066,-0.013 -0.009,-0.056 0,-0.044 0.12271,0.1593 0.230987,0.3293 0.346508,0.494"
         style="fill:none;fill-rule:evenodd;stroke:#000000;stroke-width:1px;stroke-linecap:butt;stroke-linejoin:miter;stroke-opacity:1" />
    </g>
  </g>
  <style
     id="style4253"
     type="text/css">
	.st0{fill:#FFFFFF;}
</style>
</svg>
