<?xml version="1.0" encoding="UTF-8" standalone="no"?>
<!-- Generator: Adobe Illustrator 19.1.0, SVG Export Plug-In . SVG Version: 6.00 Build 0)  -->

<svg
   xmlns:dc="http://purl.org/dc/elements/1.1/"
   xmlns:cc="http://creativecommons.org/ns#"
   xmlns:rdf="http://www.w3.org/1999/02/22-rdf-syntax-ns#"
   xmlns:svg="http://www.w3.org/2000/svg"
   xmlns="http://www.w3.org/2000/svg"
   xmlns:sodipodi="http://sodipodi.sourceforge.net/DTD/sodipodi-0.dtd"
   xmlns:inkscape="http://www.inkscape.org/namespaces/inkscape"
   version="1.1"
   id="Layer_3"
   x="0px"
   y="0px"
   viewBox="8 672 72 72"
   style="enable-background:new 8 672 72 72;"
   xml:space="preserve"
   inkscape:version="0.91 r13725"
   sodipodi:docname="Yield-black.svg"><metadata
     id="metadata13"><rdf:RDF><cc:Work
         rdf:about=""><dc:format>image/svg+xml</dc:format><dc:type
           rdf:resource="http://purl.org/dc/dcmitype/StillImage" /><dc:title /></cc:Work></rdf:RDF></metadata><defs
     id="defs11" /><sodipodi:namedview
     pagecolor="#ffffff"
     bordercolor="#666666"
     borderopacity="1"
     objecttolerance="10"
     gridtolerance="10"
     guidetolerance="10"
     inkscape:pageopacity="0"
     inkscape:pageshadow="2"
     inkscape:window-width="1920"
     inkscape:window-height="1004"
     id="namedview9"
     showgrid="true"
     inkscape:zoom="9.2709556"
     inkscape:cx="39.963883"
     inkscape:cy="35.843651"
     inkscape:window-x="0"
     inkscape:window-y="24"
     inkscape:window-maximized="1"
     inkscape:current-layer="Layer_3"><inkscape:grid
       type="xygrid"
       id="grid4150" /></sodipodi:namedview><style
     type="text/css"
     id="style3">
	.st0{fill:#FFFFFF;stroke:#DE2F26;stroke-width:6;stroke-miterlimit:10;}
	.st1{fill:#FFFFFF;}
</style><path
     style="fill:#000000;stroke:#000000;stroke-width:1.922;stroke-miterlimit:10;fill-opacity:1;stroke-dasharray:none;stroke-opacity:1"
     d="M 36.029297 7.71875 C 35.129602 7.71875 34.228347 8.2231669 33.728516 9.0292969 L 4.1386719 61.025391 C 3.6388409 61.831521 3.6388409 62.838391 4.1386719 63.644531 C 4.6385019 64.450671 5.4397921 64.955078 6.4394531 64.955078 L 66.017578 64.955078 C 66.917273 64.955078 67.818529 64.450671 68.318359 63.644531 C 68.618258 62.838391 68.617018 61.831521 68.117188 61.025391 L 38.328125 9.0292969 C 37.828295 8.2231669 37.028958 7.71875 36.029297 7.71875 z M 36 11 L 65 62 L 7 62 L 36 11 z "
     id="path2231"
     transform="translate(8,672)" /><g
     id="g4145"
     transform="translate(0.41268763,0.29610396)"
     style="fill:#000000;fill-opacity:1"><g
       id="g4141"
       style="fill:#000000;fill-opacity:1"><path
         id="path2235"
         d="m 41.6,715.3 c 0.1,1.2 0.3,2.1 0.6,2.7 0.3,0.6 0.8,0.9 1.6,0.9 0,0 0.2,0 0.2,0 0.8,0 1.3,-0.3 1.6,-0.9 0.3,-0.6 0.5,-1.5 0.6,-2.7 l 0.7,-9.5 c 0.1,-1.8 0.2,-3.2 0.2,-4 0,-1.1 -0.3,-1.9 -0.9,-2.6 -0.6,-0.6 -1.4,-0.9 -2.3,-0.9 -0.9,0 -1.7,0.3 -2.3,0.9 -0.6,0.6 -0.9,1.5 -0.9,2.6 0,0.8 0.1,2.1 0.2,4 l 0.7,9.5 z"
         inkscape:connector-curvature="0"
         style="fill:#000000;fill-opacity:1" /><circle
         id="circle2237"
         cx="44"
         cy="724.59998"
         r="3.3"
         style="fill:#000000;fill-opacity:1" /></g></g></svg>