<?xml version="1.0" encoding="UTF-8" standalone="no"?>
<!-- Created with Inkscape (http://www.inkscape.org/) -->

<svg
   xmlns:dc="http://purl.org/dc/elements/1.1/"
   xmlns:cc="http://creativecommons.org/ns#"
   xmlns:rdf="http://www.w3.org/1999/02/22-rdf-syntax-ns#"
   xmlns:svg="http://www.w3.org/2000/svg"
   xmlns="http://www.w3.org/2000/svg"
   xmlns:sodipodi="http://sodipodi.sourceforge.net/DTD/sodipodi-0.dtd"
   xmlns:inkscape="http://www.inkscape.org/namespaces/inkscape"
   width="72"
   height="72"
   viewBox="0 0 72.000001 72.000001"
   id="svg3389"
   version="1.1"
   inkscape:version="0.91 r13725"
   sodipodi:docname="Plan.svg">
  <defs
     id="defs3391" />
  <sodipodi:namedview
     id="base"
     pagecolor="#ffffff"
     bordercolor="#666666"
     borderopacity="1.0"
     inkscape:pageopacity="0.0"
     inkscape:pageshadow="2"
     inkscape:zoom="5.6568545"
     inkscape:cx="-6.486818"
     inkscape:cy="27.607041"
     inkscape:document-units="px"
     inkscape:current-layer="layer1"
     showgrid="true"
     units="px"
     showguides="false"
     inkscape:object-paths="false"
     inkscape:window-width="1920"
     inkscape:window-height="1004"
     inkscape:window-x="0"
     inkscape:window-y="24"
     inkscape:window-maximized="1">
    <inkscape:grid
       type="xygrid"
       id="grid3401" />
  </sodipodi:namedview>
  <metadata
     id="metadata3394">
    <rdf:RDF>
      <cc:Work
         rdf:about="">
        <dc:format>image/svg+xml</dc:format>
        <dc:type
           rdf:resource="http://purl.org/dc/dcmitype/StillImage" />
        <dc:title />
      </cc:Work>
    </rdf:RDF>
  </metadata>
  <g
     inkscape:label="Layer 1"
     inkscape:groupmode="layer"
     id="layer1"
     transform="translate(0,-980.36216)">
    <g
       id="g4201"
       transform="translate(0.70710675,4.6845822)">
      <path
         inkscape:connector-curvature="0"
         id="path4286"
         d="m 10.011747,1005.2824 13.808977,-7.43559 12.746748,5.31119 13.808977,-5.31119 18.057893,5.31119 -14.871206,42.4891 -15.933435,-5.3111 -13.808977,5.3111 -9.560061,-5.3111 -12.7467483,6.3733"
         style="fill:none;fill-rule:evenodd;stroke:#000000;stroke-width:1.06222904px;stroke-linecap:butt;stroke-linejoin:miter;stroke-opacity:1" />
      <g
         id="g4193">
        <path
           style="fill:none;fill-rule:evenodd;stroke:#000000;stroke-width:1.06222904px;stroke-linecap:butt;stroke-linejoin:miter;stroke-opacity:1"
           d="M 37.629701,1040.336 50.376449,997.84681"
           id="path4288"
           inkscape:connector-curvature="0" />
        <path
           style="fill:none;fill-rule:evenodd;stroke:#000000;stroke-width:1.06222904px;stroke-linecap:butt;stroke-linejoin:miter;stroke-opacity:1"
           d="M 23.820724,1045.6471 36.567472,1003.158"
           id="path4290"
           inkscape:connector-curvature="0" />
        <path
           style="fill:none;fill-rule:evenodd;stroke:#000000;stroke-width:1.06222904px;stroke-linecap:butt;stroke-linejoin:miter;stroke-opacity:1"
           d="m 14.090147,1040.2119 4.120503,-15.967"
           id="path4292"
           inkscape:connector-curvature="0" />
        <path
           style="fill:none;fill-rule:evenodd;stroke:#000000;stroke-width:1.08566153px;stroke-linecap:butt;stroke-linejoin:miter;stroke-opacity:1"
           d="m 23.864764,998.26012 -3.650323,14.35558"
           id="path4294"
           inkscape:connector-curvature="0" />
        <path
           style="fill:none;fill-rule:evenodd;stroke:#000000;stroke-width:1.06222904px;stroke-linecap:butt;stroke-linejoin:miter;stroke-opacity:1"
           d="m 1.835123,1046.5378 4.545386,-21.1832"
           id="path4296"
           inkscape:connector-curvature="0" />
        <path
           style="fill:none;fill-rule:evenodd;stroke:#000000;stroke-width:1.14775896px;stroke-linecap:butt;stroke-linejoin:miter;stroke-opacity:1"
           d="m 10.341397,1004.8934 -0.7356969,2.4799"
           id="path4298"
           inkscape:connector-curvature="0" />
      </g>
    </g>
    <g
       id="g4188"
       transform="translate(-0.08838838,4.1542521)">
      <path
         transform="translate(0,980.36216)"
         id="path4220"
         d="m 11.943359,28.152344 a 7.857437,7.8994267 0 0 0 -7.7929684,6.951172 l 1.3261719,0 0.017578,-0.02734 0.6035156,0 a 5.840138,5.6613026 0 0 1 5.8007819,-5.03125 5.840138,5.6613026 0 0 1 5.796874,5.03125 l 0.498047,0 0.01563,0.02734 1.525391,0 a 7.857437,7.8994267 0 0 0 -7.791016,-6.951172 z m 6.265625,6.951172 -0.509765,0 a 5.840138,5.6613026 0 0 1 0.03906,0.601562 5.840138,5.6613026 0 0 1 -5.839843,5.66211 5.840138,5.6613026 0 0 1 -5.8398442,-5.66211 5.840138,5.6613026 0 0 1 0.035156,-0.601562 l -0.6171875,0 -0.109375,0.167968 c -0.069877,0.1072 -0.1396079,0.195313 -0.1542969,0.195313 -0.014687,0 -0.09938,-0.05033 -0.1875,-0.111328 -0.088121,-0.0604 -0.1816662,-0.111128 -0.2070312,-0.111328 -0.077244,-6e-4 0.019353,0.499328 0.2148437,1.111328 0.6692205,2.0952 2.9975429,6.890315 6.2988281,12.978515 0.262312,0.4838 0.494415,0.878807 0.515625,0.878907 0.06114,3e-4 1.961535,-3.366322 3.201172,-5.669922 1.482318,-2.7544 2.610009,-5.043547 3.292969,-6.685547 0.527674,-1.2687 0.871947,-2.532513 0.716797,-2.632813 -0.02917,-0.0188 -0.171146,0.02752 -0.314453,0.103516 -0.143309,0.0755 -0.275792,0.138472 -0.294922,0.138672 -0.01913,1e-4 -0.08387,-0.08771 -0.144531,-0.195313 l -0.0957,-0.167968 z m -12.115234,0 11.605469,0 a 5.840138,5.6613026 0 0 0 -0.0039,-0.02734 l -5.851562,0 -5.7460938,0 a 5.840138,5.6613026 0 0 0 -0.00391,0.02734 z"
         style="fill:#000000;fill-opacity:1;fill-rule:nonzero;stroke:none"
         inkscape:connector-curvature="0" />
      <path
         style="fill:none;fill-rule:evenodd;stroke:#000000;stroke-width:0.67717367px;stroke-linecap:butt;stroke-linejoin:miter;stroke-opacity:1"
         d="m 18.263474,1015.5869 c 4.672728,-3.1404 -6.425002,15.7019 -6.425002,15.7019 0,0 -10.513638,-18.8423 -6.4250016,-15.7019"
         id="path4222"
         inkscape:connector-curvature="0" />
      <path
         transform="translate(0,980.36216)"
         inkscape:connector-curvature="0"
         id="path4179"
         d="M 10.331416,41.176998 C 7.8605477,40.510407 6.0709465,38.269188 6.0709465,35.841371 l 0,-0.666651 -0.2872621,-0.03565 -0.2872621,-0.03565 0.2745613,-0.01414 c 0.262774,-0.01354 0.2808794,-0.03975 0.4217238,-0.610489 0.6466418,-2.620373 2.9865442,-4.438723 5.7118696,-4.438723 1.542278,0 2.932027,0.559656 4.055763,1.633267 0.937394,0.895581 1.447666,1.82654 1.728136,3.152881 0.03683,0.174151 0.114728,0.247002 0.293015,0.274019 l 0.242853,0.0368 -0.243068,0.01324 c -0.241726,0.01317 -0.243068,0.0168 -0.243068,0.657586 0,1.369583 -0.601398,2.779449 -1.620972,3.800067 -0.725173,0.725914 -1.349327,1.123763 -2.282734,1.455057 -0.898283,0.318828 -2.545204,0.372429 -3.503086,0.114012 z"
         style="fill:#000000;fill-opacity:1;fill-rule:nonzero;stroke:none" />
    </g>
    <g
       id="g4183"
       transform="matrix(1.2117559,0,0,1.2372341,-14.403331,-236.34296)">
      <path
         id="path4200"
         transform="translate(0,980.36216)"
         d="m 61.482422,3.2089844 a 9.7964861,9.416674 0 0 0 -9.716797,8.2871096 l 1.652344,0 0.02148,-0.0332 0.753906,0 a 7.2813601,6.748672 0 0 1 7.232422,-5.9980472 7.2813601,6.748672 0 0 1 7.228516,5.9980472 l 0.619141,0 0.01953,0.0332 1.902343,0 a 9.7964861,9.416674 0 0 0 -9.71289,-8.2871096 z m 7.810547,8.2871096 -0.634766,0 a 7.2813601,6.748672 0 0 1 0.04883,0.71875 7.2813601,6.748672 0 0 1 -7.28125,6.748047 7.2813601,6.748672 0 0 1 -7.28125,-6.748047 7.2813601,6.748672 0 0 1 0.04297,-0.71875 l -0.769531,0 -0.136719,0.201172 c -0.08712,0.12792 -0.173096,0.232422 -0.191406,0.232422 -0.01831,0 -0.124509,-0.05971 -0.234375,-0.132813 -0.109867,-0.07244 -0.22424,-0.132583 -0.25586,-0.132813 -0.09631,-7.5e-4 0.02384,0.594609 0.267579,1.324219 0.834369,2.4976 3.735589,8.213103 7.851562,15.470703 0.327045,0.5767 0.616138,1.048828 0.642578,1.048828 0.07623,4.01e-4 2.446635,-4.011712 3.992188,-6.757812 1.848122,-3.28356 3.253969,-6.013243 4.105468,-7.970703 0.657893,-1.51239 1.086017,-3.019112 0.892578,-3.138672 -0.03637,-0.02245 -0.211951,0.03235 -0.390624,0.123047 -0.178675,0.09046 -0.345291,0.165855 -0.369141,0.166016 -0.02385,1.49e-4 -0.104058,-0.104212 -0.179688,-0.232422 l -0.11914,-0.201172 z m -15.105469,0 14.470703,0 a 7.2813601,6.748672 0 0 0 -0.0039,-0.0332 l -7.296875,0 -7.164063,0 a 7.2813601,6.748672 0 0 0 -0.0059,0.0332 z"
         style="fill:#000000;fill-opacity:1;fill-rule:nonzero;stroke:none"
         inkscape:connector-curvature="0" />
      <path
         inkscape:connector-curvature="0"
         id="path4206"
         d="m 69.361026,992.00311 c 5.825859,-3.74354 -8.010556,18.71769 -8.010556,18.71769 0,0 -13.108182,-22.46123 -8.010556,-18.71769"
         style="fill:none;fill-rule:evenodd;stroke:#000000;stroke-width:0.82555455px;stroke-linecap:butt;stroke-linejoin:miter;stroke-opacity:1" />
      <path
         transform="translate(0,980.36216)"
         inkscape:connector-curvature="0"
         id="path4181"
         d="M 60.03203,18.861647 C 58.090717,18.475792 56.398287,17.419908 55.347535,15.939055 54.549883,14.814904 54.245808,13.936712 54.178462,12.56269 l -0.04852,-0.989879 -0.36352,-0.03324 -0.363519,-0.03324 0.373966,-0.01544 c 0.331519,-0.01369 0.37974,-0.04303 0.424832,-0.25851 0.167728,-0.801509 0.277837,-1.123153 0.642986,-1.8782518 0.350687,-0.7251919 0.52112,-0.9542155 1.249902,-1.6795894 1.487778,-1.4808192 2.882706,-2.0897851 5.003908,-2.1844931 2.239678,-0.099998 4.100154,0.6055943 5.645761,2.1411732 0.993853,0.9874067 1.613729,2.1068105 1.83979,3.3223911 0.09628,0.517746 0.09952,0.521937 0.412902,0.534381 l 0.315854,0.01254 -0.309359,0.05375 -0.309359,0.05375 -0.0086,0.795495 c -0.01028,0.950382 -0.193207,1.720837 -0.612001,2.577579 -0.885436,1.811369 -2.637328,3.211837 -4.687469,3.747177 -0.911332,0.23797 -2.50824,0.301471 -3.353986,0.13337 l -2e-6,0 z"
         style="fill:#000000;fill-opacity:1;fill-rule:nonzero;stroke:none" />
    </g>
  </g>
</svg>
