<?xml version="1.0" encoding="UTF-8" standalone="no"?>
<!-- Generator: Adobe Illustrator 19.1.0, SVG Export Plug-In . SVG Version: 6.00 Build 0)  -->

<svg
   xmlns:dc="http://purl.org/dc/elements/1.1/"
   xmlns:cc="http://creativecommons.org/ns#"
   xmlns:rdf="http://www.w3.org/1999/02/22-rdf-syntax-ns#"
   xmlns:svg="http://www.w3.org/2000/svg"
   xmlns="http://www.w3.org/2000/svg"
   xmlns:sodipodi="http://sodipodi.sourceforge.net/DTD/sodipodi-0.dtd"
   xmlns:inkscape="http://www.inkscape.org/namespaces/inkscape"
   version="1.1"
   id="Capa_1"
   x="0px"
   y="0px"
   viewBox="160 862 72 72"
   style="enable-background:new 160 862 72 72;"
   xml:space="preserve"
   inkscape:version="0.91 r13725"
   sodipodi:docname="Settings.svg"><metadata
     id="metadata17"><rdf:RDF><cc:Work
         rdf:about=""><dc:format>image/svg+xml</dc:format><dc:type
           rdf:resource="http://purl.org/dc/dcmitype/StillImage" /><dc:title></dc:title></cc:Work></rdf:RDF></metadata><defs
     id="defs15" /><sodipodi:namedview
     pagecolor="#ffffff"
     bordercolor="#666666"
     borderopacity="1"
     objecttolerance="10"
     gridtolerance="10"
     guidetolerance="10"
     inkscape:pageopacity="0"
     inkscape:pageshadow="2"
     inkscape:window-width="1920"
     inkscape:window-height="1004"
     id="namedview13"
     showgrid="false"
     inkscape:zoom="9.2709556"
     inkscape:cx="37.787277"
     inkscape:cy="35.022876"
     inkscape:window-x="0"
     inkscape:window-y="24"
     inkscape:window-maximized="1"
     inkscape:current-layer="Capa_1" /><style
     type="text/css"
     id="style3">
	.st0{fill:#FFFFFF;}
</style><path
     inkscape:connector-curvature="0"
     style="fill:#000000;fill-opacity:1"
     id="path7"
     d="m 168.61508,905.41988 c 0.65785,2.13804 1.48018,4.11161 2.63143,6.08519 l -3.12483,3.94714 c -0.98678,1.31572 -0.82232,3.12483 0.16447,4.27608 l 5.42732,5.42733 c 1.15125,1.15125 2.96036,1.31571 4.27608,0.16446 l 3.94715,-3.12482 c 1.97357,1.15125 4.11161,2.13803 6.41411,2.63143 l 0.65786,5.0984 c 0.16446,1.64464 1.64464,2.79589 3.12482,2.79589 l 7.56537,0 c 1.64464,0 2.96036,-1.15125 3.12482,-2.79589 l 0.49339,-4.76947 c 2.46697,-0.65786 4.60501,-1.48018 6.74305,-2.7959 l 3.78268,2.96036 c 1.31572,0.98679 3.12482,0.82232 4.27608,-0.16446 l 5.42732,-5.42733 c 1.15125,-1.15125 1.31572,-2.96036 0.16447,-4.27608 l -2.96036,-3.78268 c 1.15125,-2.13804 2.13803,-4.27607 2.79589,-6.74304 l 4.44054,-0.49339 c 1.64465,-0.16447 2.7959,-1.64465 2.7959,-3.12483 l 0,-7.56536 c 0,-1.64465 -1.15125,-2.96036 -2.7959,-3.12483 l -4.44054,-0.49339 c -0.65786,-2.3025 -1.48018,-4.60501 -2.63143,-6.57858 l 2.7959,-3.45375 c 0.98678,-1.31572 0.82232,-3.12483 -0.16447,-4.27608 l -5.42732,-5.42733 c -1.15126,-1.15125 -2.96036,-1.31571 -4.27608,-0.16446 l -3.28929,2.63143 c -2.13804,-1.31571 -4.44054,-2.3025 -6.90751,-2.96036 l -0.49339,-4.27607 c -0.16446,-1.64465 -1.64464,-2.7959 -3.12482,-2.7959 l -7.56537,0 c -1.64464,0 -2.96036,1.15125 -3.12482,2.7959 l -0.4934,4.27607 c -2.46696,0.65786 -4.93393,1.64465 -7.07197,2.96036 l -3.45375,-2.79589 c -1.31572,-0.98679 -3.12483,-0.82233 -4.27608,0.16446 l -5.42732,5.42733 c -1.15126,1.15125 -1.31572,2.96036 -0.16447,4.27607 l 2.96036,3.61822 c -1.15125,2.13804 -2.13804,4.27608 -2.63143,6.74304 l -4.605,0.4934 c -1.64465,0.16446 -2.7959,1.64464 -2.7959,3.12482 l 0,7.56537 c 0,1.64464 1.15125,2.96036 2.7959,3.12482 l 4.44054,0.82232 z m 27.46556,-20.55805 c 6.90751,0 12.4993,5.59179 12.4993,12.49929 0,6.90751 -5.59179,12.4993 -12.4993,12.4993 -6.90751,0 -12.4993,-5.59179 -12.4993,-12.4993 0,-6.9075 5.59179,-12.49929 12.4993,-12.49929 z"
     class="st0" /></svg>