<?xml version="1.0" encoding="UTF-8" standalone="no"?>
<!-- Created with Inkscape (http://www.inkscape.org/) -->

<svg
   xmlns:dc="http://purl.org/dc/elements/1.1/"
   xmlns:cc="http://creativecommons.org/ns#"
   xmlns:rdf="http://www.w3.org/1999/02/22-rdf-syntax-ns#"
   xmlns:svg="http://www.w3.org/2000/svg"
   xmlns="http://www.w3.org/2000/svg"
   xmlns:sodipodi="http://sodipodi.sourceforge.net/DTD/sodipodi-0.dtd"
   xmlns:inkscape="http://www.inkscape.org/namespaces/inkscape"
   width="72"
   height="72"
   viewBox="0 0 72.000001 72.000001"
   id="svg3389"
   version="1.1"
   inkscape:version="0.91 r13725"
   sodipodi:docname="Drone-mission.svg">
  <defs
     id="defs3391" />
  <sodipodi:namedview
     id="base"
     pagecolor="#ffffff"
     bordercolor="#666666"
     borderopacity="1.0"
     inkscape:pageopacity="0.0"
     inkscape:pageshadow="2"
     inkscape:zoom="8"
     inkscape:cx="8.8212444"
     inkscape:cy="43.35962"
     inkscape:document-units="px"
     inkscape:current-layer="layer1"
     showgrid="true"
     units="px"
     showguides="false"
     inkscape:object-paths="false"
     inkscape:window-width="1920"
     inkscape:window-height="1004"
     inkscape:window-x="0"
     inkscape:window-y="24"
     inkscape:window-maximized="1">
    <inkscape:grid
       type="xygrid"
       id="grid3401" />
  </sodipodi:namedview>
  <metadata
     id="metadata3394">
    <rdf:RDF>
      <cc:Work
         rdf:about="">
        <dc:format>image/svg+xml</dc:format>
        <dc:type
           rdf:resource="http://purl.org/dc/dcmitype/StillImage" />
        <dc:title></dc:title>
      </cc:Work>
    </rdf:RDF>
  </metadata>
  <g
     inkscape:label="Layer 1"
     inkscape:groupmode="layer"
     id="layer1"
     transform="translate(0,-980.36216)">
    <g
       style="fill:#0078aa;fill-opacity:1;stroke:#000000;stroke-opacity:1"
       id="g4327"
       transform="translate(-22.125,-22)">
      <path
         inkscape:connector-curvature="0"
         id="path4320"
         d="m 36,1003.3622 a 13,13 0 0 0 -13,13 13,13 0 0 0 13,13 13,13 0 0 0 13,-13 13,13 0 0 0 -13,-13 z m 0.125,3.75 a 9.25,9.25 0 0 1 9.25,9.25 9.25,9.25 0 0 1 -9.25,9.25 9.25,9.25 0 0 1 -9.25,-9.25 9.25,9.25 0 0 1 9.25,-9.25 z"
         style="fill:#0078aa;fill-opacity:1;fill-rule:nonzero;stroke:#000000;stroke-opacity:1" />
      <circle
         r="3"
         cy="1016.2372"
         cx="35.875"
         id="path4325"
         style="fill:#0078aa;fill-opacity:1;fill-rule:nonzero;stroke:#000000;stroke-opacity:1" />
    </g>
    <g
       style="fill:#0078aa;fill-opacity:1;stroke:#000000;stroke-opacity:1"
       transform="translate(22,-21.75)"
       id="g4331">
      <path
         style="fill:#0078aa;fill-opacity:1;fill-rule:nonzero;stroke:#000000;stroke-opacity:1"
         d="m 36,1003.3622 a 13,13 0 0 0 -13,13 13,13 0 0 0 13,13 13,13 0 0 0 13,-13 13,13 0 0 0 -13,-13 z m 0.125,3.75 a 9.25,9.25 0 0 1 9.25,9.25 9.25,9.25 0 0 1 -9.25,9.25 9.25,9.25 0 0 1 -9.25,-9.25 9.25,9.25 0 0 1 9.25,-9.25 z"
         id="path4333"
         inkscape:connector-curvature="0" />
      <circle
         style="fill:#0078aa;fill-opacity:1;fill-rule:nonzero;stroke:#000000;stroke-opacity:1"
         id="circle4335"
         cx="35.875"
         cy="1016.2372"
         r="3" />
    </g>
    <g
       style="fill:#aa0000;fill-opacity:1;stroke:#000000;stroke-opacity:1"
       id="g4337"
       transform="translate(21.875,21.875)">
      <path
         inkscape:connector-curvature="0"
         id="path4339"
         d="m 36,1003.3622 a 13,13 0 0 0 -13,13 13,13 0 0 0 13,13 13,13 0 0 0 13,-13 13,13 0 0 0 -13,-13 z m 0.125,3.75 a 9.25,9.25 0 0 1 9.25,9.25 9.25,9.25 0 0 1 -9.25,9.25 9.25,9.25 0 0 1 -9.25,-9.25 9.25,9.25 0 0 1 9.25,-9.25 z"
         style="fill:#aa0000;fill-opacity:1;fill-rule:nonzero;stroke:#000000;stroke-opacity:1" />
      <circle
         r="3"
         cy="1016.2372"
         cx="35.875"
         id="circle4341"
         style="fill:#aa0000;fill-opacity:1;fill-rule:nonzero;stroke:#000000;stroke-opacity:1" />
    </g>
    <g
       style="fill:#aa0000;fill-opacity:1;stroke:#000000;stroke-opacity:1"
       transform="translate(-22,22.125)"
       id="g4343">
      <path
         style="fill:#aa0000;fill-opacity:1;fill-rule:nonzero;stroke:#000000;stroke-opacity:1"
         d="m 36,1003.3622 a 13,13 0 0 0 -13,13 13,13 0 0 0 13,13 13,13 0 0 0 13,-13 13,13 0 0 0 -13,-13 z m 0.125,3.75 a 9.25,9.25 0 0 1 9.25,9.25 9.25,9.25 0 0 1 -9.25,9.25 9.25,9.25 0 0 1 -9.25,-9.25 9.25,9.25 0 0 1 9.25,-9.25 z"
         id="path4345"
         inkscape:connector-curvature="0" />
      <circle
         style="fill:#aa0000;fill-opacity:1;fill-rule:nonzero;stroke:#000000;stroke-opacity:1"
         id="circle4347"
         cx="35.875"
         cy="1016.2372"
         r="3" />
    </g>
    <circle
       style="fill:#0078aa;fill-opacity:1;fill-rule:nonzero;stroke:#000000;stroke-width:1;stroke-miterlimit:4;stroke-dasharray:none;stroke-opacity:1"
       id="path4292"
       cx="36"
       cy="1016.3622"
       r="6.5" />
    <rect
       style="fill:#0078aa;fill-opacity:1;fill-rule:nonzero;stroke:#000000;stroke-width:0.94436771;stroke-miterlimit:4;stroke-dasharray:none;stroke-opacity:1"
       id="rect4294"
       width="2.8611538"
       height="11.22131"
       x="-714.26068"
       y="793.11029"
       transform="matrix(0.77010945,-0.63791177,0.7217255,0.69217939,0,0)" />
    <rect
       style="fill:#0078aa;fill-opacity:1;fill-rule:nonzero;stroke:#000000;stroke-width:0.94436771;stroke-miterlimit:4;stroke-dasharray:none;stroke-opacity:1"
       id="rect4294-3"
       width="2.8611538"
       height="11.22131"
       x="732.8786"
       y="606.8382"
       transform="matrix(0.63791177,0.77010945,-0.69217939,0.7217255,0,0)" />
    <rect
       style="fill:#0078aa;fill-opacity:1;fill-rule:nonzero;stroke:#000000;stroke-width:0.94436771;stroke-miterlimit:4;stroke-dasharray:none;stroke-opacity:1"
       id="rect4294-3-6"
       width="2.8611538"
       height="11.22131"
       x="711.87091"
       y="-828.90869"
       transform="matrix(-0.77010945,0.63791177,-0.7217255,-0.69217939,0,0)" />
    <rect
       style="fill:#0078aa;fill-opacity:1;fill-rule:nonzero;stroke:#000000;stroke-width:0.94436771;stroke-miterlimit:4;stroke-dasharray:none;stroke-opacity:1"
       id="rect4294-3-6-7"
       width="2.8611538"
       height="11.22131"
       x="-735.48798"
       y="-642.74872"
       transform="matrix(-0.63791177,-0.77010945,0.69217939,-0.7217255,0,0)" />
    <path
       style="fill:#c83737;fill-opacity:1;fill-rule:evenodd;stroke:#000000;stroke-width:1px;stroke-linecap:butt;stroke-linejoin:miter;stroke-opacity:1"
       d="m 38.0625,1009.9247 0,-19.00004 5,0 -7,-7 -6.9375,7 4.9375,0 0,19.00004 4,0"
       id="path4343"
       inkscape:connector-curvature="0"
       sodipodi:nodetypes="cccccccc" />
  </g>
</svg>
